# xmcd CD Database Entry
#
# Track frame offsets:
# 150
# 12807
# 26067
# 37850
# 50007
# 61812
# 73580
# 86840
# 100310
# 113855
#
# Disc length: 1681 seconds
#
# Revision: 0
# Processed by: cddbd v1.4b41PL1 Copyright (c) Steve Scherf et al.
# Submitted via: tcd 2.0b
#
DISCID=7e068f0a
DTITLE=Sons of the Pioneers - Columbia Historic Edition
DYEAR=1900
DGENRE=
TTITLE0=Song of the Bandit
TTITLE1=At the Rainbows End
TTITLE2=Hold That Critter Down
TTITLE3=When the Golden Train Comes Down
TTITLE4=Cajon Stomp
TTITLE5=You Must Come In at the Door
TTITLE6=The Devil's Great Grandson
TTITLE7=Cowboy Night Herd Song
TTITLE8=Send Him Home to Me
TTITLE9=The Touch of God's Hand
EXTD=
EXTT0=
EXTT1=
EXTT2=
EXTT3=
EXTT4=
EXTT5=
EXTT6=
EXTT7=
EXTT8=
EXTT9=
PLAYORDER=
